<svg xmlns="http://www.w3.org/2000/svg" width="163" height="27" fill="none" viewBox="0 0 163 27"><path fill="#C00005" d="M0 0.593408H8.99011C13.8363 0.593408 16.2593 2.23517 16.2593 5.51868C16.2593 6.76484 16.1209 7.72418 15.844 8.3967C15.5868 9.06923 15.0429 9.7022 14.2121 10.2956C15.1813 10.711 15.844 11.2253 16.2 11.8385C16.5758 12.4319 16.7637 13.4308 16.7637 14.8352C16.7637 18.5934 14.2121 20.4725 9.10879 20.4725H0V0.593408ZM8.48571 12.6099H6.88352V15.8736H8.48571C9.17802 15.8736 9.64286 15.7648 9.88022 15.5473C10.1176 15.3099 10.2363 14.8846 10.2363 14.2714C10.2363 13.6385 10.1077 13.2033 9.85055 12.9659C9.59341 12.7286 9.13846 12.6099 8.48571 12.6099ZM8.3967 5.13297H6.88352V8.30769H8.42637C9.01978 8.30769 9.43516 8.17912 9.67253 7.92198C9.90989 7.66484 10.0286 7.25934 10.0286 6.7055C10.0286 6.13187 9.9 5.72637 9.64286 5.48901C9.38571 5.25165 8.97033 5.13297 8.3967 5.13297Z"/><path fill="#C00005" d="M19.9065 6.97253C21.2317 5.72637 23.2197 5.1033 25.8702 5.1033C28.5208 5.1033 30.4988 5.72637 31.8043 6.97253C33.1296 8.1989 33.7922 10.2066 33.7922 12.9956C33.7922 15.7846 33.1296 17.7923 31.8043 19.0187C30.4988 20.2451 28.5208 20.8582 25.8702 20.8582C23.2197 20.8582 21.2317 20.2451 19.9065 19.0187C18.601 17.7923 17.9482 15.7846 17.9482 12.9956C17.9482 10.2066 18.601 8.1989 19.9065 6.97253ZM24.9208 14.9538C25.0988 15.3099 25.4153 15.4879 25.8702 15.4879C26.3252 15.4879 26.6416 15.3099 26.8197 14.9538C26.9977 14.5978 27.0867 13.9451 27.0867 12.9956C27.0867 12.0264 26.9977 11.3637 26.8197 11.0077C26.6416 10.6516 26.3252 10.4736 25.8702 10.4736C25.4153 10.4736 25.0988 10.6516 24.9208 11.0077C24.7427 11.3637 24.6537 12.0264 24.6537 12.9956C24.6537 13.9451 24.7427 14.5978 24.9208 14.9538Z"/><path fill="#C00005" d="M37.0249 6.97253C38.3501 5.72637 40.338 5.1033 42.9886 5.1033C45.6391 5.1033 47.6172 5.72637 48.9227 6.97253C50.2479 8.1989 50.9106 10.2066 50.9106 12.9956C50.9106 15.7846 50.2479 17.7923 48.9227 19.0187C47.6172 20.2451 45.6391 20.8582 42.9886 20.8582C40.338 20.8582 38.3501 20.2451 37.0249 19.0187C35.7194 17.7923 35.0666 15.7846 35.0666 12.9956C35.0666 10.2066 35.7194 8.1989 37.0249 6.97253ZM42.0391 14.9538C42.2172 15.3099 42.5337 15.4879 42.9886 15.4879C43.4435 15.4879 43.76 15.3099 43.938 14.9538C44.1161 14.5978 44.2051 13.9451 44.2051 12.9956C44.2051 12.0264 44.1161 11.3637 43.938 11.0077C43.76 10.6516 43.4435 10.4736 42.9886 10.4736C42.5337 10.4736 42.2172 10.6516 42.0391 11.0077C41.8611 11.3637 41.7721 12.0264 41.7721 12.9956C41.7721 13.9451 41.8611 14.5978 42.0391 14.9538Z"/><path fill="#C00005" d="M59.2169 20.4725H52.5707V0H59.2169V10.2956H60.0773L61.4125 5.48901H67.9696L65.8334 12.7286L68.1476 20.4725H61.5015L60.107 16.0813H59.2169V20.4725Z"/><path fill="#C00005" d="M69.3414 20.4725V5.48901H75.9876V20.4725H69.3414ZM69.3117 4.53956V0H76.0172V4.53956H69.3117Z"/><path fill="#C00005" d="M84.6742 20.4725H78.0281V5.48901H84.6446V6.26044C85.8907 5.48901 86.9786 5.1033 87.9083 5.1033C90.0446 5.1033 91.538 5.68681 92.3885 6.85385C93.2391 8.0011 93.6644 10.0385 93.6644 12.9659V20.4725H87.0182V13.411C87.0182 11.6901 86.6622 10.8297 85.9501 10.8297L84.6742 11.0374V20.4725Z"/><path fill="#C00005" d="M97.451 26.2879C95.8686 25.7736 95.0774 24.6363 95.0774 22.8758C95.0774 22.1637 95.2159 21.5308 95.4928 20.9769C95.7697 20.4231 96.2642 19.8692 96.9763 19.3154C96.2642 18.8209 95.9082 18.0791 95.9082 17.0901C95.9082 16.8725 96.0466 16.5857 96.3236 16.2297C96.6203 15.8538 96.917 15.5473 97.2137 15.3099L97.6291 14.9242C96.0269 14.1725 95.2258 12.7484 95.2258 10.6516C95.2258 8.55495 95.7895 7.11099 96.917 6.31978C98.0642 5.50879 99.9532 5.1033 102.584 5.1033C103.237 5.1033 104.097 5.18242 105.165 5.34066L105.64 5.42967L111.129 5.34066V9.22747H109.735C109.913 9.72198 110.002 10.1275 110.002 10.444C110.002 12.5802 109.458 14.0143 108.37 14.7462C107.282 15.4582 105.432 15.8143 102.821 15.8143C102.426 15.8143 102.05 15.7846 101.694 15.7253C101.615 15.844 101.575 15.9626 101.575 16.0813C101.575 16.2791 102.742 16.378 105.076 16.378C107.41 16.378 108.983 16.7242 109.794 17.4165C110.625 18.1088 111.04 19.3648 111.04 21.1846C111.04 23.0242 110.368 24.4484 109.022 25.4571C107.677 26.4857 105.759 27 103.266 27C100.774 27 98.8356 26.7626 97.451 26.2879ZM100.507 22.0451C100.507 22.3022 101.259 22.4308 102.762 22.4308C104.265 22.4308 105.017 22.2725 105.017 21.956C105.017 21.7582 104.888 21.6297 104.631 21.5703C104.374 21.5308 103.85 21.511 103.059 21.511L100.774 21.3923C100.596 21.4912 100.507 21.7088 100.507 22.0451ZM101.724 11.2451C101.902 11.4033 102.198 11.4824 102.614 11.4824C103.029 11.4824 103.326 11.4033 103.504 11.2451C103.682 11.0868 103.771 10.8099 103.771 10.4143C103.771 10.0187 103.682 9.74176 103.504 9.58352C103.326 9.42528 103.029 9.34615 102.614 9.34615C102.198 9.34615 101.902 9.42528 101.724 9.58352C101.546 9.74176 101.457 10.0187 101.457 10.4143C101.457 10.8099 101.546 11.0868 101.724 11.2451Z"/><path fill="#C00005" d="M122.315 5.1033C124.412 5.1033 125.915 5.77583 126.825 7.12088C127.735 8.46593 128.19 10.4736 128.19 13.144C128.19 15.7945 127.686 17.7429 126.677 18.989C125.688 20.2352 124.017 20.8582 121.663 20.8582C121.188 20.8582 120.515 20.7593 119.645 20.5615L119.23 20.4725V26.2582H112.584V5.48901H119.141L119.2 6.26044C120.169 5.48901 121.208 5.1033 122.315 5.1033ZM120.179 15.4879C121.05 15.4879 121.485 14.6176 121.485 12.8769C121.485 11.9473 121.386 11.3143 121.188 10.978C120.99 10.6418 120.654 10.4736 120.179 10.4736L119.23 10.6813V15.3989C119.487 15.4582 119.803 15.4879 120.179 15.4879Z"/><path fill="#C00005" d="M144.414 10.3253V15.9626C144.592 16.1011 144.83 16.2099 145.126 16.289L145.037 20.5022C143.495 20.7396 142.436 20.8582 141.863 20.8582C141.289 20.8582 140.765 20.7692 140.29 20.5912C139.815 20.433 139.499 20.2648 139.341 20.0868L139.103 19.8198C137.877 20.5121 136.384 20.8582 134.623 20.8582C132.882 20.8582 131.567 20.4626 130.677 19.6714C129.787 18.8604 129.342 17.5648 129.342 15.7846C129.342 14.0044 129.846 12.8176 130.855 12.2242C131.864 11.611 133.456 11.2648 135.632 11.1857L137.768 11.0967V10.8297C137.768 10.4538 137.353 10.2659 136.522 10.2659C134.722 10.2659 132.922 10.3648 131.122 10.5626L130.143 10.6516L129.995 6.14176C132.606 5.44945 134.989 5.1033 137.145 5.1033C139.4 5.1033 141.151 5.43956 142.397 6.11209C143.742 6.82418 144.414 8.22857 144.414 10.3253ZM136.641 16.289C137.016 16.289 137.392 16.1407 137.768 15.844V14.7462L136.759 14.8055C136.245 14.8451 135.988 15.1022 135.988 15.5769C135.988 16.0516 136.206 16.289 136.641 16.289Z"/><path fill="#C00005" d="M162.013 0V20.4725H155.456L155.396 19.8198C154.309 20.5121 153.27 20.8582 152.281 20.8582C150.105 20.8582 148.582 20.1956 147.712 18.8703C146.842 17.5253 146.406 15.567 146.406 12.9956C146.406 7.73407 148.592 5.1033 152.964 5.1033L155.367 5.28132V0H162.013ZM154.417 10.4736C153.883 10.4736 153.527 10.6912 153.349 11.1264C153.191 11.5615 153.112 12.1846 153.112 12.9956C153.112 13.7868 153.201 14.4 153.379 14.8352C153.557 15.2703 153.913 15.4879 154.447 15.4879L155.367 15.3989V10.5626C154.932 10.5033 154.615 10.4736 154.417 10.4736Z"/></svg>